<?xml version="1.0" standalone="no"?>
<!DOCTYPE svg PUBLIC "-//W3C//DTD SVG 20010904//EN"
 "http://www.w3.org/TR/2001/REC-SVG-20010904/DTD/svg10.dtd">
<svg version="1.0" xmlns="http://www.w3.org/2000/svg"
 width="6358.000000pt" height="1896.000000pt" viewBox="0 0 6358.000000 1896.000000"
 preserveAspectRatio="xMidYMid meet">

<g transform="translate(0.000000,1896.000000) scale(0.100000,-0.100000)"
fill="#000000" stroke="none">
<path d="M40231 16674 c2 -5 20 -43 40 -84 77 -157 105 -283 96 -429 -12 -209
-102 -386 -403 -788 -156 -209 -248 -349 -298 -453 -37 -77 -41 -92 -40 -160
1 -113 30 -178 118 -265 79 -79 166 -129 301 -175 155 -53 235 -65 415 -64
146 1 177 4 264 27 148 40 256 97 342 182 75 74 111 133 139 229 33 111 4 187
-144 380 -50 66 -94 131 -98 145 -3 14 1 82 10 151 27 204 29 241 18 325 -15
122 -45 190 -114 259 -32 32 -60 57 -62 55 -2 -2 3 -29 12 -59 34 -128 -3
-273 -132 -515 -123 -229 -146 -287 -152 -370 -5 -70 -4 -72 48 -175 44 -89
53 -114 53 -161 1 -42 -4 -62 -18 -78 -65 -71 -219 -2 -291 131 -22 41 -30 69
-33 128 -7 129 33 230 193 480 131 206 159 275 186 465 29 210 -38 471 -156
609 -52 60 -153 147 -212 181 -44 26 -87 41 -82 29z"/>
<path d="M38135 16518 c87 -165 128 -357 106 -497 -31 -205 -124 -378 -411
-760 -147 -197 -240 -339 -289 -441 -33 -69 -36 -82 -36 -165 0 -78 4 -98 28
-147 82 -167 317 -297 622 -343 442 -66 842 117 925 425 32 118 6 187 -142
384 -97 128 -98 130 -98 185 0 31 7 99 15 151 29 186 15 362 -36 462 -20 40
-112 138 -128 138 -5 0 -2 -19 6 -42 18 -54 18 -176 -2 -253 -8 -33 -69 -167
-135 -297 -116 -229 -150 -316 -150 -384 0 -18 22 -75 52 -134 41 -80 53 -115
56 -162 4 -51 1 -62 -18 -83 -92 -98 -291 42 -323 228 -20 119 33 260 193 507
158 245 183 323 184 570 1 191 -9 242 -79 386 -38 79 -56 102 -137 180 -82 78
-193 154 -226 154 -5 0 5 -28 23 -62z"/>
<path d="M42390 16503 c85 -170 120 -338 101 -477 -29 -204 -117 -369 -402
-751 -155 -208 -269 -379 -306 -462 -52 -116 -40 -257 30 -359 143 -209 591
-347 937 -289 189 31 324 92 433 194 75 71 107 119 137 206 44 129 20 205
-128 401 -50 66 -96 132 -101 147 -8 20 -5 67 10 180 36 259 17 415 -65 525
-29 40 -85 92 -99 92 -3 0 2 -23 10 -51 11 -36 14 -79 11 -138 -6 -111 -44
-211 -160 -426 -92 -170 -138 -288 -138 -355 0 -30 15 -71 55 -152 43 -87 55
-121 55 -158 0 -167 -220 -129 -310 54 -78 158 -45 286 153 597 113 177 152
261 177 386 46 230 6 484 -101 646 -63 95 -274 267 -327 267 -6 0 7 -35 28
-77z"/>
<path d="M9475 14310 c-159 -29 -351 -107 -488 -197 -96 -64 -285 -255 -372
-376 -283 -394 -538 -958 -677 -1497 -23 -92 -42 -191 -45 -243 -7 -102 -6
-103 93 -137 166 -56 465 -91 789 -91 427 0 733 48 1051 166 128 48 341 150
450 215 468 283 648 763 483 1294 -66 214 -168 387 -313 531 -150 150 -330
256 -526 310 -78 22 -121 27 -245 30 -82 2 -172 0 -200 -5z"/>
<path d="M40165 14159 c-185 -18 -298 -39 -341 -64 -169 -99 -177 -309 -17
-455 45 -41 62 -51 82 -47 14 2 71 13 126 23 83 15 151 19 405 19 273 0 318
-3 428 -23 81 -14 129 -19 141 -13 30 16 108 107 131 151 27 53 36 140 20 198
-13 51 -77 125 -131 152 -102 53 -568 85 -844 59z"/>
<path d="M15400 14069 c-308 -39 -568 -164 -776 -373 -178 -177 -284 -373
-339 -626 -25 -113 -31 -391 -11 -510 81 -493 391 -859 861 -1013 243 -80 545
-95 776 -37 243 60 458 197 609 389 70 89 136 189 129 196 -3 2 -107 53 -231
114 l-227 109 -27 -46 c-70 -120 -225 -241 -368 -289 -71 -24 -97 -27 -206
-27 -148 0 -237 21 -364 86 -113 58 -254 199 -313 313 -120 231 -135 514 -42
755 115 298 397 491 719 491 120 0 192 -16 295 -66 117 -56 191 -125 301 -282
9 -13 44 2 235 97 123 62 226 114 228 116 7 6 -69 120 -133 200 -174 217 -421
357 -706 400 -102 15 -304 17 -410 3z"/>
<path d="M46010 13502 c0 -625 1 -635 55 -748 52 -107 181 -200 325 -235 81
-20 299 -18 380 4 100 27 179 68 243 127 66 60 100 114 130 203 20 60 21 84
25 645 l3 582 -140 0 -140 0 -3 -557 -3 -558 -23 -50 c-47 -101 -128 -152
-256 -162 -132 -10 -235 40 -289 141 -22 41 -22 47 -25 614 l-3 572 -139 0
-140 0 0 -578z"/>
<path d="M38050 14055 c-192 -25 -342 -55 -376 -76 -86 -53 -144 -165 -130
-252 14 -85 77 -181 157 -238 28 -19 28 -19 151 5 68 14 170 30 228 37 158 18
492 15 633 -5 132 -19 134 -19 194 47 60 64 85 121 91 198 6 83 -8 125 -59
182 -51 59 -104 83 -214 97 -146 19 -541 22 -675 5z"/>
<path d="M42260 14063 c-250 -24 -268 -29 -338 -88 -57 -49 -86 -122 -79 -201
6 -82 38 -146 105 -213 53 -53 54 -53 100 -47 26 4 83 12 127 18 204 28 639 6
847 -43 l89 -21 37 27 c115 85 173 219 142 330 -14 50 -72 122 -123 154 -37
23 -193 53 -392 76 -116 13 -414 18 -515 8z"/>
<path d="M28280 13578 l0 -461 -72 69 c-86 82 -149 124 -238 158 -189 71 -414
58 -605 -34 -204 -99 -351 -292 -422 -555 -26 -95 -27 -112 -27 -325 0 -213 1
-230 27 -325 86 -319 286 -533 566 -606 100 -27 278 -29 375 -5 126 30 273
118 353 210 18 20 35 36 38 36 3 0 5 -49 5 -110 l0 -110 240 0 240 0 0 1260 0
1260 -240 0 -240 0 0 -462z m-274 -639 c92 -28 148 -61 217 -127 l57 -56 0
-323 0 -323 -41 -45 c-116 -125 -322 -191 -476 -151 -141 36 -240 116 -300
241 -105 223 -75 499 73 664 113 126 298 173 470 120z"/>
<path d="M21338 13593 l-3 -248 -147 -3 -148 -3 0 -209 0 -210 150 0 149 0 3
-542 c3 -528 4 -545 25 -607 75 -220 281 -323 580 -291 56 6 128 20 159 30 71
25 144 67 144 83 0 11 -90 348 -95 355 -1 1 -22 -7 -48 -18 -61 -27 -127 -35
-170 -21 -45 15 -93 68 -106 118 -7 24 -11 198 -11 466 l0 427 185 0 185 0 0
210 0 210 -185 0 -185 0 0 250 0 250 -240 0 -240 0 -2 -247z"/>
<path d="M52460 13789 c-121 -21 -219 -90 -267 -187 -24 -50 -28 -69 -28 -147
0 -156 55 -234 230 -332 55 -31 119 -67 143 -80 126 -71 181 -178 136 -264
-46 -91 -262 -93 -396 -4 l-38 25 -10 -24 c-5 -14 -23 -57 -40 -97 -16 -39
-30 -74 -30 -78 0 -12 104 -60 166 -76 74 -19 223 -19 297 0 130 34 230 113
268 214 17 46 20 72 17 141 -8 161 -78 250 -274 353 -145 76 -203 121 -232
179 -20 40 -22 52 -13 85 6 21 25 52 42 68 29 29 34 30 123 30 86 0 97 -3 164
-35 l71 -36 31 88 c18 49 29 95 26 103 -19 51 -256 96 -386 74z"/>
<path d="M51280 13781 l-115 -6 -3 -622 -2 -623 115 0 115 0 0 261 c0 234 2
261 16 255 9 -3 39 -6 68 -6 l53 0 164 -255 164 -255 128 0 c70 0 127 2 127 4
0 3 -78 123 -173 268 -95 145 -176 269 -181 276 -4 7 0 15 11 19 41 14 113 76
146 125 88 128 84 318 -9 427 -99 115 -269 151 -624 132z m382 -228 c58 -26
78 -62 78 -140 0 -70 -23 -120 -67 -146 -38 -22 -193 -43 -245 -33 l-38 7 0
171 0 171 113 -5 c85 -3 123 -9 159 -25z"/>
<path d="M54841 13192 c-129 -328 -241 -612 -248 -629 l-13 -33 124 0 124 0
43 125 44 125 211 0 211 0 45 -122 45 -123 122 -3 c115 -2 123 -1 117 15 -3
10 -115 294 -249 631 l-242 612 -50 0 -50 0 -234 -598z m423 -214 l6 -28 -146
0 c-113 0 -145 3 -142 13 3 6 35 108 73 225 l69 214 67 -199 c36 -109 69 -210
73 -225z"/>
<path d="M53613 13773 l-23 -4 0 -621 0 -620 223 5 c166 3 237 8 282 21 206
57 333 188 390 401 25 92 31 314 11 399 -51 214 -204 367 -414 411 -63 14
-410 19 -469 8z m489 -231 c75 -37 115 -82 150 -172 18 -46 22 -76 22 -185 1
-151 -20 -238 -77 -318 -70 -99 -154 -137 -299 -137 l-88 0 0 426 0 426 113
-3 c103 -4 118 -7 179 -37z"/>
<path d="M55828 13773 l-28 -4 0 -620 0 -619 195 0 c227 0 312 13 423 65 204
96 306 294 305 595 0 119 -3 145 -26 215 -61 184 -194 307 -383 355 -65 17
-107 20 -268 19 -105 -1 -203 -4 -218 -6z m473 -220 c69 -31 122 -84 154 -155
25 -55 29 -78 33 -181 3 -70 0 -142 -8 -180 -24 -125 -88 -221 -181 -272 -48
-26 -65 -30 -161 -33 l-108 -4 0 427 0 428 113 -5 c84 -3 123 -10 158 -25z"/>
<path d="M47450 13150 l0 -620 105 0 105 0 2 381 3 380 300 -391 299 -391 46
3 45 3 3 628 2 627 -110 0 -110 0 -2 -368 -3 -368 -286 366 -285 365 -57 3
-57 3 0 -621z"/>
<path d="M48610 13150 l0 -620 115 0 115 0 0 620 0 620 -115 0 -115 0 0 -620z"/>
<path d="M48970 13766 c0 -3 395 -1076 447 -1213 l16 -43 61 0 61 0 229 598
c127 328 236 612 243 630 l14 33 -122 -3 -122 -3 -142 -395 c-79 -217 -147
-400 -152 -408 -6 -10 -52 113 -148 394 l-140 409 -122 3 c-68 1 -123 1 -123
-2z"/>
<path d="M50170 13150 l0 -620 395 0 396 0 -3 98 -3 97 -282 3 -283 2 0 185 0
185 205 0 205 0 0 95 0 95 -205 0 -205 0 0 140 0 140 288 2 287 3 3 98 3 97
-401 0 -400 0 0 -620z"/>
<path d="M53110 13150 l0 -620 110 0 110 0 0 620 0 620 -110 0 -110 0 0 -620z"/>
<path d="M56920 13150 l0 -620 395 0 396 0 -3 98 -3 97 -282 3 -283 2 0 185 0
185 205 0 205 0 0 95 0 95 -205 0 -205 0 0 140 0 140 285 0 285 0 0 100 0 100
-395 0 -395 0 0 -620z"/>
<path d="M40265 13534 c-127 -13 -220 -27 -297 -45 l-88 -21 0 -131 0 -132
540 0 540 0 0 131 0 131 -38 11 c-134 40 -505 72 -657 56z"/>
<path d="M38140 13429 c-104 -11 -273 -43 -342 -67 l-52 -17 3 -130 c1 -71 4
-145 8 -164 5 -32 7 -33 42 -27 128 22 582 78 771 96 124 12 235 24 248 26 23
5 23 5 16 122 -3 64 -7 118 -8 119 0 0 -35 8 -76 17 -169 34 -415 44 -610 25z"/>
<path d="M42260 13429 c-40 -4 -113 -15 -161 -24 l-88 -17 -3 -112 c-2 -61 -3
-112 -2 -113 0 -2 92 -12 205 -23 253 -25 473 -52 699 -85 95 -14 174 -24 175
-23 1 2 5 73 8 159 l5 157 -71 20 c-209 61 -528 86 -767 61z"/>
<path d="M17635 13380 c-361 -57 -640 -305 -752 -666 -25 -83 -27 -101 -27
-279 -1 -168 2 -200 22 -274 117 -429 466 -682 942 -684 195 -1 370 34 525
103 70 31 193 108 214 134 10 12 -6 42 -89 165 -56 83 -106 153 -111 157 -6 3
-20 -3 -32 -14 -43 -39 -124 -81 -217 -113 -242 -81 -502 -33 -640 118 -50 54
-102 150 -115 211 l-7 32 677 0 677 0 -5 168 c-3 138 -9 184 -31 267 -89 338
-316 574 -631 655 -92 24 -304 35 -400 20z m245 -390 c88 -14 197 -69 249
-126 48 -52 97 -148 107 -211 l7 -43 -448 0 -448 0 6 40 c7 56 58 160 101 208
99 109 257 158 426 132z"/>
<path d="M20007 13375 c-153 -29 -294 -99 -419 -207 l-58 -49 0 110 0 111
-240 0 -240 0 0 -910 0 -910 240 0 240 0 0 616 0 616 59 57 c114 109 237 156
390 149 115 -6 173 -30 230 -94 72 -82 71 -73 71 -745 l0 -599 245 0 246 0 -3
713 c-3 639 -5 718 -21 770 -56 191 -177 311 -363 362 -84 23 -280 28 -377 10z"/>
<path d="M23445 13375 c-132 -29 -278 -109 -387 -212 l-58 -56 0 116 0 117
-240 0 -240 0 0 -910 0 -910 240 0 240 0 0 607 0 607 47 43 c104 97 281 158
443 151 l90 -3 0 233 0 232 -37 -1 c-21 0 -65 -6 -98 -14z"/>
<path d="M24545 13376 c-377 -59 -653 -311 -753 -686 -21 -80 -25 -118 -26
-245 -1 -204 26 -323 111 -485 175 -337 542 -522 955 -480 180 18 318 65 454
155 183 122 311 307 376 541 18 68 22 105 22 259 0 152 -4 192 -22 256 -104
379 -373 622 -757 684 -107 18 -249 18 -360 1z m368 -454 c176 -82 276 -260
277 -488 0 -169 -50 -303 -150 -405 -213 -215 -579 -152 -715 123 -135 276
-49 632 183 756 82 44 121 52 238 48 88 -2 109 -6 167 -34z"/>
<path d="M29935 13383 c-267 -36 -507 -183 -650 -398 -67 -100 -99 -171 -133
-295 -24 -85 -26 -113 -26 -260 0 -140 3 -179 23 -255 103 -399 407 -651 838
-695 177 -18 399 11 569 75 116 44 283 144 284 171 0 9 -177 281 -200 307 -4
5 -30 -8 -58 -27 -116 -84 -284 -136 -437 -136 -254 0 -445 130 -509 348 l-15
52 680 0 679 0 0 93 c-1 551 -280 931 -747 1012 -79 14 -226 18 -298 8z m213
-393 c103 -17 167 -46 233 -108 73 -67 108 -132 133 -244 l6 -28 -450 0 c-515
0 -466 -12 -426 102 73 207 270 316 504 278z"/>
<path d="M39715 13019 c-895 -35 -1733 -135 -2508 -300 -106 -23 -196 -45
-201 -49 -5 -5 -4 -134 3 -302 6 -161 18 -531 26 -823 26 -939 43 -1387 70
-1865 82 -1422 244 -2354 505 -2888 63 -129 72 -142 93 -137 12 3 73 14 136
25 63 11 116 21 117 23 2 2 -18 33 -45 70 -254 348 -437 1093 -535 2182 -53
584 -81 1164 -116 2380 -11 385 -25 798 -30 919 -6 120 -9 220 -7 222 9 10
407 90 641 129 836 141 1758 205 2771 192 795 -10 1410 -54 2055 -147 328 -47
910 -156 927 -174 3 -2 0 -123 -6 -268 -6 -145 -18 -501 -26 -793 -27 -956
-42 -1351 -70 -1815 -90 -1487 -275 -2383 -581 -2822 l-54 -77 33 -6 c17 -3
79 -14 137 -24 98 -18 106 -18 119 -3 7 10 39 71 71 137 223 464 377 1255 464
2385 44 561 70 1158 101 2275 18 634 33 1067 40 1147 l6 57 -38 10 c-78 20
-374 81 -558 115 -671 122 -1375 196 -2165 226 -300 11 -1074 11 -1375 -1z"/>
<path d="M38768 12500 c-473 -40 -808 -433 -724 -849 21 -104 47 -159 98 -211
60 -63 116 -84 223 -84 78 0 104 5 195 36 58 20 175 69 260 108 215 100 313
137 400 149 42 5 224 15 405 21 615 19 910 53 1150 131 90 30 219 88 211 96
-2 3 -53 -4 -113 -14 -87 -14 -161 -18 -383 -18 -237 1 -308 5 -510 29 -278
33 -615 45 -755 27 -160 -21 -328 -72 -577 -175 -96 -40 -129 -44 -149 -20
-17 20 -14 95 5 132 112 213 681 265 1556 142 419 -59 745 -50 1230 35 537 94
963 250 1031 377 16 30 7 31 -52 7 -96 -37 -299 -89 -443 -111 -123 -19 -182
-22 -471 -22 -419 -1 -423 -1 -1425 148 -129 19 -305 42 -390 51 -182 19 -618
27 -772 15z"/>
<path d="M40482 11392 c-10 -7 -8 -19 9 -58 34 -76 38 -223 9 -314 -36 -111
-65 -120 -48 -15 13 77 4 218 -16 274 -9 25 -28 60 -42 78 -25 33 -26 33 -109
33 -153 0 -353 -49 -646 -157 l-156 -57 -6 -113 c-6 -129 2 -167 49 -221 l32
-37 37 42 c42 50 90 67 148 53 117 -26 267 -195 267 -300 0 -34 -4 -42 -26
-50 -66 -25 -189 -3 -235 42 l-29 30 0 -28 c0 -45 30 -139 54 -168 l22 -28 69
22 c62 20 94 23 285 24 176 2 223 5 261 20 96 36 117 94 77 214 -14 40 -21 75
-17 78 9 5 49 -46 74 -95 9 -18 19 -57 22 -85 9 -88 -43 -162 -149 -211 l-47
-22 27 -27 c24 -23 27 -34 26 -89 0 -102 -12 -115 -156 -172 -188 -75 -440
-205 -594 -307 -175 -115 -321 -257 -373 -361 -19 -37 -32 -69 -30 -72 3 -2
33 7 67 21 76 31 232 46 232 23 0 -8 -26 -24 -64 -37 -86 -31 -207 -107 -289
-182 -205 -188 -294 -448 -243 -712 15 -77 60 -216 75 -231 6 -6 20 26 36 79
15 49 34 113 43 142 8 28 21 52 28 52 6 0 24 -35 39 -77 166 -468 560 -809
1000 -867 l50 -7 -30 23 c-58 42 -125 121 -155 181 -89 183 -50 357 120 528
103 104 199 169 390 261 80 39 170 88 200 108 125 85 220 212 236 316 8 55 30
58 41 7 12 -59 7 -192 -10 -255 -8 -32 -13 -58 -11 -58 14 0 87 58 142 113 76
74 139 166 193 281 79 168 144 412 156 579 3 43 11 81 16 84 6 4 28 -13 50
-38 l39 -44 -6 134 c-13 283 -82 494 -247 752 -27 42 -49 80 -49 84 0 4 18 5
40 2 27 -3 40 -1 40 6 0 20 -88 177 -138 246 -25 36 -86 112 -135 169 -85 99
-89 105 -82 140 4 23 21 50 46 75 47 47 44 53 -41 91 -130 59 -519 118 -568
88z m-252 -154 c0 -7 -8 -23 -18 -36 -17 -21 -24 -23 -112 -20 l-95 3 55 32
c45 27 66 33 113 33 39 0 57 -4 57 -12z"/>
<path d="M37718 11237 c-85 -58 -121 -125 -121 -226 0 -59 5 -81 36 -145 22
-47 55 -95 86 -126 l50 -50 526 0 526 0 50 47 c32 30 63 73 87 122 34 68 37
83 37 156 -1 115 -35 172 -142 239 l-43 26 -514 0 -515 0 -63 -43z"/>
<path d="M46010 10495 l0 -775 140 0 140 0 0 355 0 355 270 0 270 0 0 115 0
115 -270 0 -270 0 0 180 0 180 373 2 372 3 3 123 3 122 -516 0 -515 0 0 -775z"/>
<path d="M42553 11158 c-320 -26 -566 -216 -639 -493 -22 -86 -20 -241 5 -338
12 -46 64 -169 126 -297 124 -258 268 -592 430 -1000 198 -497 247 -666 249
-855 1 -117 -15 -185 -53 -219 -17 -15 -20 -13 -59 33 -95 112 -218 183 -502
286 -198 72 -328 133 -425 198 -82 56 -198 169 -255 249 l-47 67 -38 -55 c-67
-96 -166 -174 -340 -265 -77 -41 -175 -84 -175 -76 0 1 7 20 15 42 8 22 14 55
15 73 l0 33 -33 -25 c-18 -14 -112 -67 -208 -117 -220 -116 -298 -166 -374
-243 -96 -97 -130 -192 -113 -321 27 -201 209 -334 538 -389 52 -9 190 -23
305 -31 309 -22 430 -40 560 -79 28 -9 53 -16 56 -16 4 0 16 26 27 58 28 76
72 144 112 172 l33 24 -7 -25 c-50 -173 -63 -275 -48 -360 31 -164 140 -270
349 -338 89 -29 275 -64 405 -77 63 -6 71 -5 110 21 201 133 376 420 424 698
36 203 -2 684 -71 912 -101 334 -435 1166 -635 1580 -155 321 -190 423 -190
543 0 239 176 419 442 452 110 13 182 1 285 -50 148 -73 256 -207 283 -349 12
-62 12 -215 1 -283 -6 -38 -19 -59 -73 -117 -84 -91 -134 -190 -150 -297 -15
-103 2 -203 77 -463 96 -331 146 -571 161 -769 4 -51 8 -91 10 -89 6 5 21 161
64 627 23 245 55 551 71 680 38 299 48 548 26 676 -32 177 -84 293 -184 404
-142 157 -331 227 -560 208z"/>
<path d="M50500 10970 c-74 -4 -143 -8 -152 -9 -17 -1 -18 -38 -18 -621 l0
-620 120 0 120 0 0 255 0 255 68 -1 67 0 164 -255 163 -254 94 0 94 0 13 32
13 32 19 -32 19 -32 91 0 90 0 44 125 43 125 212 0 211 0 44 -125 43 -125 124
0 124 0 -15 38 c-8 20 -120 303 -248 627 l-234 590 -51 3 -50 3 -20 -53 c-52
-137 -433 -1102 -441 -1116 -7 -13 -44 37 -166 222 -86 131 -155 239 -153 240
38 20 119 83 139 108 63 80 74 115 74 233 0 128 -17 177 -82 242 -97 97 -260
129 -563 113z m332 -228 c62 -27 88 -69 88 -142 0 -76 -24 -119 -84 -149 -41
-21 -63 -24 -154 -25 l-107 -1 -3 174 -2 174 107 -5 c81 -3 120 -10 155 -26z
m935 -600 c-77 -1 -142 -1 -144 2 -4 4 106 358 129 415 10 23 18 4 83 -194
l72 -220 -140 -3z"/>
<path d="M48283 10963 l-53 -4 0 -620 0 -621 233 4 c223 4 235 5 312 32 231
80 350 248 374 531 29 334 -100 565 -367 653 -70 23 -94 25 -262 27 -102 1
-209 0 -237 -2z m462 -232 c73 -36 122 -92 150 -171 23 -62 30 -228 15 -318
-15 -89 -68 -199 -116 -241 -68 -60 -109 -75 -226 -79 l-108 -4 0 427 0 428
109 -5 c98 -4 116 -8 176 -37z"/>
<path d="M47240 10340 l0 -620 395 0 395 0 0 100 0 100 -280 0 -280 0 0 180 0
180 203 2 202 3 0 95 0 95 -202 3 -203 2 0 140 0 140 285 0 285 0 0 100 0 100
-400 0 -400 0 0 -620z"/>
<path d="M49350 10340 l0 -620 390 0 390 0 0 100 0 100 -280 0 -280 0 0 180 0
180 205 0 205 0 0 100 0 100 -205 0 -205 0 0 140 0 140 285 0 285 0 0 100 0
100 -395 0 -395 0 0 -620z"/>
<path d="M52440 10340 l0 -620 395 0 396 0 -3 98 -3 97 -282 3 -283 2 0 520 0
520 -110 0 -110 0 0 -620z"/>
<path d="M39655 10724 c-197 -60 -292 -67 -373 -25 -48 24 -50 22 -21 -25 49
-80 139 -96 284 -51 44 14 140 40 213 58 72 18 132 36 132 41 0 15 -49 28
-103 27 -29 0 -88 -11 -132 -25z"/>
<path d="M37840 10554 c0 -114 7 -130 64 -163 59 -33 160 -107 199 -147 18
-18 27 -37 27 -60 0 -37 -15 -55 -59 -74 -17 -7 -31 -15 -31 -19 0 -3 21 -17
47 -31 89 -47 95 -106 18 -161 -38 -27 -43 -34 -29 -42 27 -15 45 -72 34 -103
-6 -15 -53 -69 -105 -120 l-94 -93 15 -223 c25 -401 122 -1645 129 -1665 2 -6
39 -14 89 -18 71 -6 103 -3 206 19 67 14 140 26 161 26 22 0 39 4 39 8 0 5 43
542 95 1195 52 652 95 1197 95 1211 l0 26 -94 0 c-93 0 -95 0 -120 31 -32 37
-32 57 -5 112 62 122 169 252 231 279 19 9 28 20 28 35 l0 23 -288 0 c-159 0
-371 3 -470 7 l-182 6 0 -59z"/>
<path d="M26335 10223 c-132 -141 -244 -262 -248 -270 -7 -11 23 -13 160 -13
l168 1 275 245 c151 135 286 256 300 269 l25 25 -221 0 -220 0 -239 -257z"/>
<path d="M38733 10428 c-53 -51 -153 -198 -153 -226 0 -12 21 -14 128 -9 175
7 248 36 265 104 9 41 -15 105 -55 145 -33 33 -44 38 -84 38 -41 0 -50 -5
-101 -52z"/>
<path d="M29075 10417 c-135 -45 -204 -137 -205 -273 0 -60 5 -81 31 -134 49
-97 131 -148 245 -149 119 -2 210 53 261 156 22 47 27 70 27 128 0 41 -7 85
-16 107 -23 53 -91 123 -144 147 -57 27 -147 35 -199 18z"/>
<path d="M18134 10370 c-275 -72 -434 -303 -434 -632 l0 -78 -150 0 -150 0 0
-210 0 -210 150 0 150 0 0 -705 0 -705 240 0 240 0 0 705 0 705 185 0 185 0 0
210 0 210 -186 0 -186 0 4 88 c5 112 38 180 107 220 40 23 57 27 126 27 72 0
86 -3 137 -32 l57 -33 89 143 c49 78 87 147 85 152 -6 19 -113 90 -169 113
-133 54 -342 68 -480 32z"/>
<path d="M37671 10355 c-16 -14 -35 -42 -41 -61 -17 -51 -8 -129 20 -166 l22
-30 -22 -20 c-77 -72 -61 -236 28 -276 33 -15 37 -20 32 -42 -16 -65 42 -160
97 -160 41 0 109 46 176 120 31 35 57 67 57 70 0 4 -40 15 -90 25 l-89 17 83
52 c98 62 135 89 136 97 0 8 -173 85 -213 94 -42 11 -40 21 4 34 23 7 75 28
116 47 l75 34 -53 43 c-121 97 -215 147 -278 147 -17 0 -42 -11 -60 -25z"/>
<path d="M14380 9095 l0 -1265 265 0 265 0 0 1265 0 1265 -265 0 -265 0 0
-1265z"/>
<path d="M7545 10274 c-146 -20 -195 -29 -293 -55 -262 -67 -532 -220 -979
-556 -592 -444 -1549 -1273 -2360 -2044 l-103 -97 0 -251 c0 -138 2 -251 5
-251 2 0 42 30 87 67 426 344 959 671 1303 798 449 167 758 109 924 -172 22
-38 67 -148 101 -248 417 -1215 1019 -1896 1855 -2101 305 -74 695 -73 1065 2
837 172 1815 720 2826 1585 297 255 660 600 652 621 -3 7 -29 109 -59 226 -34
135 -58 211 -65 208 -6 -2 -85 -60 -175 -129 -740 -561 -1180 -817 -1589 -924
-117 -30 -156 -36 -286 -40 -118 -4 -168 -2 -235 12 -172 34 -305 110 -439
251 -249 261 -411 673 -600 1524 -113 509 -245 822 -462 1092 -199 247 -444
396 -763 463 -76 16 -342 29 -410 19z"/>
<path d="M27730 9910 l0 -250 -150 0 -150 0 0 -210 0 -210 150 0 150 0 0 -497
c0 -278 4 -525 10 -558 32 -195 123 -310 290 -366 144 -48 391 -34 524 30 106
50 102 30 44 236 -27 99 -51 181 -52 182 -1 1 -24 -9 -51 -23 -42 -21 -61 -25
-117 -22 -61 3 -71 7 -103 38 -63 61 -65 81 -65 557 l0 423 185 0 185 0 0 210
0 210 -185 0 -185 0 0 250 0 250 -240 0 -240 0 0 -250z"/>
<path d="M16430 9700 c-192 -19 -362 -96 -497 -223 l-53 -50 0 117 0 116 -240
0 -240 0 0 -915 0 -915 240 0 240 0 0 618 0 619 63 60 c109 105 255 161 392
149 138 -11 214 -55 262 -154 l28 -57 5 -615 5 -615 240 0 240 0 0 705 c0 778
1 760 -65 895 -68 140 -228 243 -401 260 -128 12 -145 12 -219 5z"/>
<path d="M19564 9699 c-235 -18 -444 -117 -601 -283 -178 -189 -264 -434 -250
-720 8 -155 35 -265 97 -391 64 -131 137 -225 239 -307 159 -128 344 -195 566
-205 496 -23 871 240 993 697 22 82 25 117 26 255 0 132 -4 175 -21 245 -30
120 -74 219 -138 316 -187 281 -520 424 -911 393z m197 -429 c223 -42 379
-257 379 -525 0 -217 -101 -400 -266 -481 -66 -33 -84 -38 -172 -42 -156 -7
-253 29 -350 131 -89 95 -131 203 -139 358 -10 182 38 328 141 434 105 107
255 153 407 125z"/>
<path d="M21984 9699 c-148 -17 -323 -104 -448 -222 l-56 -53 0 118 0 118
-240 0 -240 0 0 -915 0 -915 240 0 240 0 0 609 0 609 53 48 c107 97 306 163
454 150 l73 -7 0 236 c0 129 -1 234 -2 234 -2 -1 -35 -5 -74 -10z"/>
<path d="M23357 9699 c-170 -19 -346 -102 -479 -228 l-38 -35 0 112 0 112
-240 0 -240 0 0 -915 0 -915 240 0 240 0 0 622 0 623 65 62 c146 140 333 180
466 100 43 -26 59 -44 84 -91 l30 -60 3 -628 3 -628 239 0 240 0 0 620 0 620
63 63 c34 34 85 74 113 89 153 82 327 72 409 -25 65 -76 65 -73 65 -754 l0
-613 243 2 242 3 0 720 c0 659 -2 726 -18 785 -39 143 -118 250 -225 304 -119
60 -324 76 -476 37 -151 -40 -315 -140 -401 -247 l-41 -50 -27 57 c-88 187
-303 286 -560 258z"/>
<path d="M26240 9699 c-235 -18 -501 -122 -641 -251 l-37 -33 95 -167 94 -167
53 43 c284 231 714 229 841 -4 28 -53 30 -61 33 -204 l4 -148 -53 44 c-74 60
-115 83 -195 114 -99 37 -200 54 -325 54 -409 0 -654 -239 -636 -620 11 -229
119 -396 320 -495 106 -53 199 -75 313 -75 205 0 408 74 532 193 l42 41 0 -97
0 -97 240 0 241 0 -3 673 c-3 607 -5 678 -21 732 -62 210 -211 357 -427 423
-130 39 -296 54 -470 41z m195 -1054 c82 -22 153 -59 203 -108 l42 -41 0 -112
0 -111 -44 -41 c-69 -64 -148 -96 -271 -112 -231 -29 -415 88 -415 266 0 162
139 272 345 273 45 1 107 -6 140 -14z"/>
<path d="M30610 9700 c-347 -32 -643 -237 -777 -538 -114 -257 -106 -616 19
-867 102 -204 294 -371 511 -446 187 -65 428 -76 617 -29 159 39 327 139 420
250 l43 51 -109 102 c-60 57 -131 123 -158 148 l-48 45 -54 -56 c-93 -98 -195
-140 -340 -140 -191 0 -350 98 -429 265 -42 89 -55 152 -55 268 0 159 42 275
137 378 124 133 335 182 515 120 74 -25 124 -58 180 -118 l47 -51 128 120 c70
66 141 132 156 147 l28 27 -37 47 c-45 57 -157 144 -241 186 -149 74 -357 108
-553 91z"/>
<path d="M32414 9699 c-230 -17 -433 -92 -611 -225 l-71 -53 95 -170 95 -170
61 48 c81 62 136 93 224 125 213 76 443 48 558 -68 70 -71 85 -121 85 -289 l0
-131 -32 31 c-85 81 -228 147 -372 172 -33 6 -110 11 -171 11 -314 0 -544
-155 -616 -415 -23 -83 -18 -275 9 -362 77 -245 322 -412 607 -413 210 0 406
71 533 193 l42 41 0 -97 0 -97 240 0 241 0 -3 678 -3 677 -27 81 c-107 315
-418 468 -884 433z m191 -1054 c84 -22 156 -59 204 -105 l41 -40 0 -114 0
-113 -44 -41 c-24 -22 -57 -47 -72 -55 -132 -68 -325 -80 -446 -28 -235 100
-217 403 29 487 82 28 199 32 288 9z"/>
<path d="M38796 9646 c-3 -17 -19 -170 -36 -341 -17 -170 -32 -322 -35 -337
-4 -25 3 -31 80 -78 46 -28 87 -56 91 -61 3 -6 29 36 56 93 38 76 65 117 109
160 56 56 59 62 84 161 29 110 54 164 115 245 46 60 56 51 -95 76 -110 19
-248 58 -315 90 l-49 24 -5 -32z"/>
<path d="M28910 8745 l0 -915 240 0 240 0 0 915 0 915 -240 0 -240 0 0 -915z"/>
<path d="M48855 8511 l-90 -6 0 -775 0 -775 138 -3 137 -3 0 286 0 285 129 0
c334 0 525 105 602 330 18 53 22 88 23 190 0 108 -3 133 -23 183 -59 149 -166
224 -386 272 -78 18 -382 27 -530 16z m415 -252 c166 -27 240 -99 240 -236 0
-51 -6 -81 -24 -120 -45 -96 -135 -133 -328 -133 l-118 0 0 243 c0 134 3 247
7 250 10 11 150 8 223 -4z"/>
<path d="M53587 8213 c-5 -8 -429 -1084 -473 -1200 l-24 -63 124 0 124 0 42
125 43 125 215 -2 215 -3 42 -120 43 -120 121 -3 c72 -1 121 1 121 7 0 10
-476 1214 -491 1244 -7 12 -22 17 -54 17 -24 0 -46 -3 -48 -7z m122 -610 c39
-119 69 -218 67 -220 -2 -2 -67 -2 -144 -1 l-141 3 72 218 c39 119 72 217 74
217 1 0 34 -98 72 -217z"/>
<path d="M58197 8205 c-103 -26 -167 -64 -248 -144 -89 -89 -146 -196 -174
-325 -21 -96 -16 -307 10 -401 42 -152 148 -291 265 -348 195 -95 509 -61 629
66 l23 26 -41 73 c-63 112 -54 107 -102 64 -67 -61 -120 -80 -224 -81 -79 0
-97 4 -147 28 -94 46 -156 137 -184 266 -49 232 34 466 197 556 50 28 62 30
154 30 99 0 129 -8 226 -62 6 -4 93 177 87 182 -13 11 -93 46 -138 59 -77 24
-259 30 -333 11z"/>
<path d="M59223 8205 c-207 -56 -354 -241 -394 -495 -7 -44 -9 -120 -6 -185
17 -322 152 -524 388 -580 172 -40 381 7 501 114 136 121 209 340 195 586 -22
372 -219 576 -552 574 -44 0 -104 -7 -132 -14z m288 -221 c113 -62 162 -184
162 -404 0 -277 -104 -429 -302 -447 -104 -9 -182 27 -238 111 -42 62 -62 127
-75 249 -23 215 32 400 142 479 52 38 95 48 182 44 61 -3 88 -10 129 -32z"/>
<path d="M46093 8203 l-113 -4 0 -626 0 -625 213 5 c172 4 227 9 290 26 111
29 188 73 257 147 103 110 148 238 157 444 9 221 -35 350 -160 474 -142 141
-270 172 -644 159z m373 -224 c145 -54 217 -209 200 -428 -16 -189 -89 -318
-211 -372 -48 -21 -166 -35 -219 -25 l-36 7 0 419 0 419 33 4 c57 8 181 -5
233 -24z"/>
<path d="M51070 8201 l-75 -6 0 -620 0 -620 118 -3 117 -3 0 261 0 261 67 -3
67 -3 166 -257 165 -258 128 0 c70 0 127 2 127 5 0 2 -81 129 -181 280 -100
152 -180 277 -178 278 2 2 21 12 43 22 21 11 60 44 86 73 63 67 92 144 93 237
1 190 -100 308 -298 350 -71 15 -287 18 -445 6z m417 -219 c71 -26 96 -68 91
-154 -7 -124 -59 -160 -235 -166 l-113 -4 0 170 c0 127 3 172 13 176 24 11
198 -5 244 -22z"/>
<path d="M55698 8203 l-88 -4 0 -624 0 -625 215 0 c290 0 389 21 501 106 152
117 165 386 24 521 -23 22 -59 49 -81 59 l-40 17 50 44 c66 57 91 111 91 194
0 169 -99 273 -294 310 -46 8 -180 9 -378 2z m353 -194 c21 -7 51 -25 66 -41
24 -25 28 -37 28 -88 0 -44 -5 -66 -21 -87 -39 -52 -77 -66 -190 -71 l-104 -5
0 152 0 151 91 0 c51 0 109 -5 130 -11z m24 -474 c101 -27 139 -79 139 -190
-1 -75 -11 -103 -52 -148 -37 -39 -108 -57 -229 -57 l-103 0 0 205 0 205 93 0
c52 0 119 -7 152 -15z"/>
<path d="M39147 8128 c-23 -95 -82 -218 -158 -329 -165 -240 -266 -298 -385
-221 -62 39 -86 40 -241 6 -102 -22 -132 -25 -219 -19 -79 5 -110 3 -137 -9
-91 -38 -101 -157 -20 -247 l35 -38 -21 -27 c-56 -72 -44 -182 28 -247 21 -19
52 -38 67 -41 28 -6 29 -9 26 -52 -4 -41 -1 -48 40 -88 55 -56 97 -65 187 -42
36 9 95 20 131 26 291 44 554 118 835 237 72 30 168 70 215 90 184 77 615 312
619 338 1 5 -36 15 -81 22 -363 52 -745 335 -877 648 l-27 64 -17 -71z"/>
<path d="M47090 7575 l0 -625 395 0 395 0 0 100 0 100 -280 0 -280 0 0 185 0
185 205 0 205 0 0 95 0 95 -205 0 -205 0 0 145 0 145 285 0 285 0 0 100 0 100
-400 0 -400 0 0 -625z"/>
<path d="M50010 7575 l0 -625 390 0 390 0 0 100 0 100 -280 0 -280 0 0 185 0
185 205 0 205 0 0 95 0 95 -205 0 -205 0 0 145 0 145 285 0 285 0 0 100 0 100
-395 0 -395 0 0 -625z"/>
<path d="M52055 8188 c-3 -7 -4 -287 -3 -623 l3 -610 107 -3 108 -3 2 382 3
381 300 -391 299 -391 43 0 43 0 0 635 0 635 -105 0 -105 0 -2 -372 -3 -373
-290 372 -290 372 -53 1 c-33 0 -54 -5 -57 -12z"/>
<path d="M54332 7593 c-67 -334 -122 -616 -122 -625 0 -16 12 -18 105 -18 58
0 105 1 105 3 0 9 130 651 132 653 2 1 59 -150 127 -337 l124 -340 40 3 39 3
121 333 c66 183 124 329 127 325 4 -5 33 -145 65 -313 32 -168 60 -311 62
-317 8 -20 213 -18 213 2 0 12 -229 1146 -245 1213 -5 20 -11 22 -64 22 l-59
0 -19 -62 c-106 -345 -238 -758 -243 -758 -3 0 -64 183 -135 408 l-131 407
-60 3 -61 3 -121 -608z"/>
<path d="M56640 7745 c0 -380 3 -468 16 -526 39 -171 178 -272 394 -286 231
-15 423 84 492 255 23 57 23 58 23 532 l0 475 -112 3 -113 3 0 -453 c0 -418
-2 -456 -19 -493 -68 -151 -336 -168 -423 -28 l-23 38 -5 465 -5 465 -112 3
-113 3 0 -456z"/>
<path d="M14352 6433 c4 -445 4 -460 26 -517 47 -125 117 -204 227 -256 80
-38 160 -53 280 -53 124 0 224 23 302 70 99 59 152 124 195 239 22 57 22 72
26 517 l3 457 -95 0 -96 0 0 -412 c0 -450 -3 -479 -57 -567 -32 -52 -104 -105
-166 -123 -69 -19 -193 -14 -259 11 -61 24 -127 80 -154 133 -41 78 -44 118
-44 546 l0 412 -96 0 -95 0 3 -457z"/>
<path d="M16070 6260 l0 -630 95 0 95 0 2 278 3 277 323 3 322 2 0 85 0 85
-325 0 -325 0 2 183 3 182 328 3 327 2 0 80 0 80 -425 0 -425 0 0 -630z"/>
<path d="M17510 6261 l0 -631 95 0 95 0 0 239 0 239 218 4 c187 5 225 8 275
26 167 61 253 194 245 384 -3 81 -7 102 -36 160 -40 81 -110 148 -190 180 -55
22 -70 23 -379 26 l-323 3 0 -630z m608 444 c74 -31 132 -121 132 -207 0 -87
-77 -185 -163 -206 -26 -7 -120 -12 -216 -12 l-171 0 0 226 0 226 188 -4 c149
-4 196 -8 230 -23z"/>
<path d="M19020 6260 l0 -630 425 0 425 0 0 80 0 80 -330 0 -330 0 0 200 0
200 320 0 320 0 0 85 0 85 -320 0 -320 0 0 185 0 185 330 0 330 0 0 80 0 80
-425 0 -425 0 0 -630z"/>
<path d="M39665 6699 c-968 -37 -1871 -143 -2770 -325 -250 -51 -295 -62 -295
-72 0 -4 27 -162 60 -352 33 -190 60 -354 60 -365 0 -18 -23 -25 -238 -68
-130 -27 -240 -51 -244 -55 -4 -4 40 -234 98 -511 57 -277 104 -508 104 -514
0 -11 1 -11 281 47 276 58 779 141 979 163 85 9 158 19 163 23 5 5 -511 149
-995 278 -32 8 -19 19 35 30 314 66 420 86 588 116 1971 349 4133 326 6194
-65 237 -45 285 -56 285 -68 0 -4 -229 -70 -510 -147 -280 -76 -510 -142 -510
-146 0 -5 18 -8 40 -8 128 0 817 -112 1208 -197 90 -19 167 -31 171 -27 8 10
211 987 211 1017 0 9 -4 17 -8 17 -12 0 -446 90 -449 93 -1 2 26 169 61 373
36 203 63 371 60 373 -6 7 -271 61 -519 106 -859 157 -1714 248 -2675 285
-290 11 -1086 11 -1385 -1z m559 -511 c3 -50 6 -176 6 -280 l0 -188 -53 0 -54
0 -6 203 c-4 111 -7 237 -7 280 l0 77 54 0 53 0 7 -92z m360 -105 c44 -133 67
-191 72 -178 3 11 33 99 67 195 l62 175 65 0 65 0 3 -277 2 -278 -55 0 -55 0
-2 202 -3 203 -64 -188 -64 -188 -45 3 -45 3 -63 185 -62 185 -1 -202 -1 -203
-45 0 -45 0 0 280 0 280 75 0 74 0 65 -197z m-876 181 c18 -5 22 -13 22 -49
l0 -42 -52 13 c-67 18 -92 18 -129 -2 -26 -13 -30 -20 -27 -52 3 -33 9 -40 58
-68 123 -71 168 -105 184 -138 35 -73 11 -159 -57 -204 -33 -22 -53 -27 -127
-30 -49 -2 -105 -1 -125 2 -34 7 -35 8 -35 53 0 42 1 45 23 39 12 -4 47 -12
77 -18 97 -19 160 28 134 100 -6 17 -36 40 -94 73 -100 56 -139 93 -150 143
-15 68 23 145 84 172 32 13 172 19 214 8z m1659 -27 c43 -23 63 -64 63 -127 0
-120 -77 -190 -211 -190 l-47 0 -7 -110 c-8 -121 -4 -116 -78 -103 l-39 6 6
131 c3 72 8 196 12 276 l6 145 131 -6 c97 -4 141 -10 164 -22z m-2086 -14 c0
-10 6 -97 12 -193 14 -199 10 -258 -19 -297 -72 -98 -264 -108 -343 -18 -16
19 -34 52 -40 72 -10 39 -31 296 -31 376 l0 44 52 6 c28 4 53 5 54 4 1 -1 7
-81 13 -177 18 -268 29 -298 114 -307 36 -4 48 -1 74 21 17 14 33 40 37 57 5
28 -4 213 -19 366 -5 57 -3 60 63 62 24 1 32 -3 33 -16z m2611 -268 c48 -148
87 -276 87 -282 1 -9 -16 -13 -53 -13 l-55 0 -22 73 c-13 39 -25 75 -28 78 -4
4 -55 9 -114 11 l-109 5 -33 -74 c-31 -67 -36 -73 -64 -73 -16 0 -33 5 -36 10
-4 6 36 109 88 228 53 119 105 239 116 265 l21 48 57 -3 58 -3 87 -270z m274
242 c1 -1 28 -100 60 -220 31 -119 59 -216 60 -214 2 2 43 93 92 202 l89 200
42 3 c26 2 42 -1 40 -7 -2 -5 -56 -127 -119 -270 l-115 -261 -51 0 c-30 0 -56
5 -62 13 -8 10 -152 540 -152 561 0 6 110 -1 116 -7z m-3391 -28 c4 -17 4 -33
1 -36 -3 -3 -44 -9 -92 -14 -48 -5 -90 -11 -93 -14 -2 -3 4 -111 15 -240 l19
-234 -53 -7 c-29 -3 -54 -5 -56 -3 -2 2 -11 96 -20 209 -9 113 -19 220 -22
238 l-5 33 -62 -6 c-34 -3 -76 -8 -93 -11 -30 -4 -32 -2 -38 32 -4 20 -6 38
-4 40 5 4 396 41 455 43 38 1 42 -1 48 -30z m3972 -43 c3 -3 -46 -500 -52
-531 -4 -18 -11 -20 -52 -17 -26 2 -51 7 -55 10 -4 5 36 439 51 551 1 4 104
-8 108 -13z m-4627 -21 c80 -41 82 -193 3 -255 l-25 -19 102 -116 c57 -64 101
-117 99 -119 -2 -2 -33 -6 -69 -10 l-65 -6 -79 105 c-72 96 -81 104 -105 98
-14 -3 -28 -7 -30 -9 -1 -1 2 -51 9 -109 7 -58 10 -108 9 -109 -2 -2 -25 -7
-51 -10 -44 -7 -48 -5 -52 16 -5 24 -55 451 -59 503 l-2 30 80 11 c119 17 201
16 235 -1z m4952 -15 c72 -11 145 -28 167 -39 48 -25 94 -80 110 -130 27 -93
3 -232 -54 -307 -30 -40 -96 -79 -146 -88 -29 -5 -306 27 -315 37 -2 2 13 125
34 275 34 254 38 272 57 272 11 0 77 -9 147 -20z m-5379 -302 c20 -149 35
-273 33 -275 -2 -2 -26 -6 -54 -10 -61 -7 -51 -36 -92 272 -17 127 -32 240
-35 252 -5 23 8 28 80 32 l31 1 37 -272z m-288 -33 c-25 -149 -47 -280 -50
-292 -4 -17 -15 -23 -53 -30 -26 -4 -51 -8 -55 -8 -4 0 -73 115 -152 255
l-144 255 57 12 c43 8 59 8 64 0 5 -7 54 -92 109 -190 56 -97 104 -179 108
-181 4 -3 22 88 40 202 19 114 38 215 42 224 7 13 57 28 76 23 1 -1 -18 -122
-42 -270z m6356 217 c4 -4 32 -128 63 -277 31 -148 59 -278 62 -288 5 -16 1
-18 -33 -12 -83 13 -78 9 -96 93 l-17 78 -106 17 c-58 9 -110 15 -114 12 -5
-3 -24 -34 -44 -69 -35 -63 -36 -63 -72 -57 -20 3 -37 8 -38 11 -1 3 64 119
143 259 l143 253 52 -6 c28 -4 54 -10 57 -14z"/>
<path d="M41176 6128 c-3 -29 -6 -70 -6 -90 0 -38 0 -38 40 -38 59 0 105 43
105 100 0 54 -29 80 -90 80 l-42 0 -7 -52z"/>
<path d="M41677 6008 l-45 -103 52 -7 c28 -3 65 -6 82 -7 l32 -1 -34 107 c-19
58 -36 108 -38 110 -2 2 -24 -42 -49 -99z"/>
<path d="M37932 6031 c-10 -6 -12 -25 -7 -78 9 -91 14 -97 60 -89 54 10 85 46
85 96 0 54 -26 80 -82 80 -24 0 -49 -4 -56 -9z"/>
<path d="M43009 6018 c-5 -12 -55 -394 -53 -397 3 -3 47 -5 98 -5 86 -1 96 1
120 23 36 33 66 120 66 188 0 68 -30 137 -69 157 -31 16 -158 42 -162 34z"/>
<path d="M43617 5775 c-31 -55 -55 -101 -53 -102 2 -2 38 -10 80 -17 56 -10
76 -10 76 -2 0 11 -37 187 -44 211 -1 5 -28 -35 -59 -90z"/>
<path d="M40204 5028 c13 -234 48 -419 107 -568 40 -101 98 -202 112 -197 21
7 95 159 131 267 52 156 86 376 86 551 l0 69 -222 0 -221 0 7 -122z"/>
<path d="M38560 5054 c-113 -12 -209 -23 -214 -23 -26 -2 21 -361 69 -526 43
-146 153 -364 177 -349 19 12 96 187 122 276 14 48 32 134 41 192 18 126 32
441 19 448 -5 2 -101 -5 -214 -18z"/>
<path d="M42064 5035 c-8 -47 12 -348 31 -458 8 -48 29 -129 45 -180 32 -99
99 -239 115 -240 16 -2 91 129 129 224 59 147 99 335 114 539 l7 99 -30 5
c-16 3 -97 12 -180 21 -82 8 -167 17 -187 20 -36 5 -37 4 -44 -30z"/>
</g>
</svg>
